<svg width="53" height="32" viewBox="0 0 53 32" fill="none" xmlns="http://www.w3.org/2000/svg">
<g clipPath="url(#clip0_746_4810)">
<path d="M9.05557 0.78703C6.77737 1.40846 5.23959 2.31237 3.61638 3.97896C1.73687 5.95623 0.939504 7.42509 0.398431 9.9956C-0.712189 15.2495 2.13555 20.6165 7.31844 23.0175C8.94168 23.7802 9.56817 23.9214 11.5331 23.9214C13.6974 23.9497 14.0106 23.8649 16.2603 22.7633C19.4498 21.1815 22.6393 18.611 26.5407 14.4022C28.3063 12.5096 30.5845 10.1651 31.6097 9.1764C34.0872 6.80366 38.0456 4.17669 39.6973 3.80947C43.143 3.07505 46.9875 5.22183 48.6392 8.78097C49.2372 10.1086 49.3226 10.5888 49.2087 12.6226C49.0663 15.2213 48.4114 16.6902 46.6458 18.3567C44.5954 20.2775 41.4344 21.1815 39.1847 20.4188C37.6184 19.9103 33.9733 17.4529 31.9799 15.5321L30.1858 13.809L29.0467 14.9106L27.9076 16.0122L29.246 17.3963C30.9262 19.1194 34.6568 21.9159 36.5078 22.8481C38.6151 23.8932 40.4377 24.2039 42.602 23.8367C44.9941 23.413 47.1584 22.3961 48.6677 20.9555C53.4519 16.3794 53.9644 9.71314 49.9206 4.76988C47.4716 1.80393 43.4563 0.0526034 40.0105 0.504558C36.223 0.95651 31.0116 4.68513 25.2307 11.0407C21.6426 14.9953 18.9087 17.3963 15.8617 19.2889C14.2954 20.2775 13.6404 20.5035 12.1311 20.6165C10.6218 20.7578 10.0808 20.673 8.77081 20.0798C5.58132 18.611 3.75876 16.1252 3.47399 12.905C3.27465 10.4193 3.95811 8.41377 5.55284 6.63417C8.1158 3.80947 11.704 2.87732 14.5232 4.31792C16.118 5.10884 19.2505 7.42509 21.4432 9.4024L23.0949 10.8995L24.0917 9.96737C24.6042 9.43063 25.0599 8.86572 25.0599 8.69623C25.0599 8.32903 22.981 6.32349 20.6174 4.40266C16.2888 0.900018 12.7007 -0.229868 9.05557 0.78703Z" fill="#68CDF9"/>
<path d="M0 29.4582C0 31.5202 0.0854325 32.0005 0.427161 32.0005C0.768891 32.0005 0.854324 31.5202 0.854324 29.4582C0.854324 27.3962 0.768891 26.916 0.427161 26.916C0.0854325 26.916 0 27.3962 0 29.4582Z" fill="#68CDF9"/>
<path d="M5.69531 29.5147C5.69531 32.3394 6.17944 32.7349 6.3218 30.0232L6.40723 28.4696L7.54633 30.2492C8.17282 31.2096 8.85629 32.0005 9.05567 32.0005C9.31192 32.0005 9.39735 31.2943 9.39735 29.4582C9.39735 27.9612 9.28346 26.916 9.11259 26.916C8.94172 26.916 8.82783 27.7352 8.82783 28.8085V30.7293L7.54633 28.8085C6.8344 27.7634 6.12247 26.916 5.98006 26.916C5.80919 26.916 5.69531 28.0176 5.69531 29.5147Z" fill="#68CDF9"/>
<path d="M14.2393 29.4865C14.2393 31.4073 14.3247 32.0288 14.6095 31.944C14.7803 31.8593 14.9796 31.3508 15.0366 30.7858C15.1221 29.9102 15.2359 29.7407 15.8055 29.7407C16.1757 29.7407 16.5744 29.5995 16.6598 29.4582C16.7738 29.2888 16.4605 29.1758 15.9763 29.1758C15.179 29.1758 15.0935 29.091 15.0935 28.3284C15.0935 27.5374 15.179 27.4809 16.0903 27.4809C16.6313 27.4809 17.087 27.3397 17.087 27.1985C17.087 27.029 16.4605 26.916 15.6631 26.916H14.2393V29.4865Z" fill="#68CDF9"/>
<path d="M21.4154 29.3735C21.4724 31.0118 21.6148 31.8593 21.8711 31.944C22.1274 32.0288 22.2129 31.4073 22.2129 29.4865C22.2129 27.368 22.1274 26.916 21.7857 26.916C21.4154 26.916 21.3585 27.3114 21.4154 29.3735Z" fill="#68CDF9"/>
<path d="M27.0537 29.4582C27.0537 30.9553 27.1676 32.0005 27.3385 32.0005C27.5093 32.0005 27.6232 31.1813 27.6232 30.1079V28.1871L28.9047 30.1079C29.6167 31.153 30.3286 32.0005 30.471 32.0005C30.6419 32.0005 30.7558 30.9271 30.7558 29.4582C30.7558 27.9612 30.6419 26.916 30.471 26.916C30.3001 26.916 30.1862 27.7352 30.1862 28.8085V30.7293L28.9047 28.8085C28.1928 27.7634 27.4809 26.916 27.3385 26.916C27.1676 26.916 27.0537 27.9894 27.0537 29.4582Z" fill="#68CDF9"/>
<path d="M35.5967 29.4865C35.5967 31.4073 35.6821 32.0288 35.9669 31.944C36.1947 31.8593 36.3371 31.0118 36.394 29.3735C36.451 27.3114 36.394 26.916 36.0238 26.916C35.6821 26.916 35.5967 27.368 35.5967 29.4865Z" fill="#68CDF9"/>
<path d="M40.4375 27.1985C40.4375 27.3397 40.8931 27.4809 41.4342 27.4809H42.4309V29.7407C42.4309 31.0683 42.5448 32.0005 42.7157 32.0005C42.8866 32.0005 43.0005 31.0683 43.0005 29.7407V27.4809H43.8548C44.3389 27.4809 44.7091 27.3397 44.7091 27.1985C44.7091 27.029 43.7978 26.916 42.5733 26.916C41.3488 26.916 40.4375 27.029 40.4375 27.1985Z" fill="#68CDF9"/>
<path d="M49.2655 28.4131C49.8066 29.3453 50.1198 30.3339 50.1198 30.9836C50.1198 32.4807 50.7748 32.17 51.0026 30.5599C51.088 29.882 51.4582 28.8368 51.8 28.2436C52.1702 27.6505 52.3695 27.0855 52.2556 26.9725C52.1702 26.8595 51.9708 26.9725 51.8285 27.2268C51.6861 27.481 51.3159 27.9612 51.0311 28.3284L50.49 28.9781L49.8635 27.9329C49.5218 27.368 49.0377 26.916 48.8098 26.916C48.5251 26.916 48.639 27.3397 49.2655 28.4131Z" fill="#68CDF9"/>
</g>
<defs>
<clipPath id="clip0_746_4810">
<rect width="53" height="32" fill="white"/>
</clipPath>
</defs>
</svg>
